<?xml version="1.0" ?><!DOCTYPE svg  PUBLIC '-//W3C//DTD SVG 1.1//EN'  'http://www.w3.org/Graphics/SVG/1.1/DTD/svg11.dtd'><svg enable-background="new 0 0 50 50" height="50px" id="Layer_1" version="1.1" viewBox="0 0 50 50" width="50px" xml:space="preserve" xmlns="http://www.w3.org/2000/svg" xmlns:xlink="http://www.w3.org/1999/xlink"><g><g><path d="M50,45.233C50,47.866,47.866,50,45.233,50H4.767C2.134,50,0,47.866,0,45.233V4.767     C0,2.134,2.134,0,4.767,0h40.466C47.866,0,50,2.134,50,4.767V45.233z" fill="#2899C0"/><path d="M37.112,18.171l-1.837,5.579l-22.414,2.105L37.005,50h8.228C47.866,50,50,47.866,50,45.233V31.071     L37.112,18.171z" opacity="0.2"/><path d="M25.252,24.142l9.764-5.842c1.708-1.095,2.496,0.306,2.496,0.306V25v6.393c0,0-0.788,1.401-2.496,0.306     l-9.764-5.842c0,0-0.361-0.217-0.361-0.858S25.252,24.142,25.252,24.142z" fill="#FFFFFF"/><path d="M12.861,24.142l9.764-5.842c1.708-1.095,2.496,0.306,2.496,0.306V25v6.393c0,0-0.788,1.401-2.496,0.306     l-9.764-5.842c0,0-0.361-0.217-0.361-0.858S12.861,24.142,12.861,24.142z" fill="#FFFFFF"/></g></g></svg>